<!-- Generated by IcoMoon.io -->
<svg version="1.1" xmlns="http://www.w3.org/2000/svg" width="15" height="24" viewBox="0 0 15 24">
<title>Vector5</title>
<path d="M0.080 21.040l0.333 2.96 2.16-2.053 3.693-10.133c-0.907-0.227-1.707-0.68-2.36-1.307l-3.827 10.533zM11.293 10.507c-0.653 0.627-1.467 1.080-2.36 1.307l3.693 10.133 2.16 2.053 0.347-2.96-3.84-10.533zM11.52 7.467c0.4-2.080-0.8-3.92-2.587-4.56v-1.573c0-0.733-0.6-1.333-1.333-1.333s-1.333 0.6-1.333 1.333v1.573c-1.547 0.56-2.667 2.027-2.667 3.76 0 2.453 2.213 4.4 4.747 3.933 1.573-0.293 2.867-1.56 3.173-3.133v0zM7.6 8c-0.733 0-1.333-0.6-1.333-1.333s0.6-1.333 1.333-1.333c0.733 0 1.333 0.6 1.333 1.333s-0.6 1.333-1.333 1.333z"></path>
</svg>
