<!-- Generated by IcoMoon.io -->
<svg version="1.1" xmlns="http://www.w3.org/2000/svg" width="23" height="24" viewBox="0 0 23 24">
<title>Vector2</title>
<path fill="#fff" d="M19.765 1.412c-0.78 0.001-1.528 0.311-2.079 0.862s-0.862 1.299-0.862 2.079c0 0.42 0.092 0.819 0.252 1.182l-2.3 2.587c-0.781-0.539-1.708-0.828-2.658-0.828-0.871 0-1.675 0.254-2.375 0.666l-2.675-2.674-0.027 0.027c0.231-0.468 0.372-0.989 0.372-1.548 0-0.698-0.207-1.38-0.595-1.961s-0.939-1.033-1.584-1.3-1.355-0.337-2.039-0.201c-0.685 0.136-1.314 0.472-1.807 0.966s-0.83 1.122-0.966 1.807c-0.136 0.685-0.066 1.394 0.201 2.039s0.72 1.196 1.3 1.584c0.58 0.388 1.263 0.595 1.961 0.595 0.559 0 1.079-0.141 1.548-0.372l-0.027 0.027 2.675 2.674c-0.432 0.718-0.663 1.539-0.667 2.376 0 1.173 0.447 2.234 1.159 3.060l-3.032 3.031c-0.34-0.136-0.702-0.207-1.068-0.208-1.621 0-2.941 1.319-2.941 2.941s1.32 2.941 2.941 2.941 2.941-1.319 2.941-2.941c0-0.378-0.078-0.736-0.208-1.069l3.339-3.339c0.495 0.176 1.020 0.291 1.575 0.291 2.595 0 4.706-2.111 4.706-4.706 0-0.748-0.192-1.446-0.504-2.075l2.491-2.803c0.301 0.103 0.619 0.173 0.954 0.173 1.622 0 2.941-1.319 2.941-2.941s-1.319-2.941-2.941-2.941zM12.118 14.353c-1.298 0-2.353-1.055-2.353-2.353s1.055-2.353 2.353-2.353c1.298 0 2.353 1.055 2.353 2.353s-1.055 2.353-2.353 2.353z"></path>
</svg>
