<!-- Generated by IcoMoon.io -->
<svg version="1.1" xmlns="http://www.w3.org/2000/svg" width="24" height="24" viewBox="0 0 24 24">
<title>Vector3</title>
<path d="M10.75 4.5h3.75l4.113-4.125c0.116-0.117 0.254-0.21 0.407-0.274s0.316-0.096 0.481-0.096c0.165 0 0.328 0.033 0.481 0.096s0.291 0.156 0.407 0.274l3.225 3.237c0.233 0.234 0.364 0.551 0.364 0.881s-0.131 0.647-0.364 0.881l-2.862 2.875h-10v2.5c0 0.332-0.132 0.649-0.366 0.884s-0.552 0.366-0.884 0.366c-0.332 0-0.649-0.132-0.884-0.366s-0.366-0.552-0.366-0.884v-3.75c0-0.663 0.263-1.299 0.732-1.768s1.105-0.732 1.768-0.732zM3.25 10.75v5l-2.862 2.862c-0.233 0.234-0.363 0.551-0.363 0.881s0.131 0.647 0.363 0.881l3.225 3.238c0.116 0.117 0.254 0.21 0.407 0.274s0.316 0.096 0.481 0.096c0.165 0 0.328-0.033 0.481-0.096s0.291-0.156 0.407-0.274l5.362-5.363h5c0.332 0 0.65-0.132 0.884-0.366s0.366-0.552 0.366-0.884v-1.25h1.25c0.332 0 0.65-0.132 0.884-0.366s0.366-0.552 0.366-0.884v-1.25h1.25c0.331 0 0.649-0.132 0.884-0.366s0.366-0.552 0.366-0.884v-1.25h-8.75v1.25c0 0.663-0.263 1.299-0.732 1.768s-1.105 0.732-1.768 0.732h-2.5c-0.663 0-1.299-0.263-1.768-0.732s-0.732-1.105-0.732-1.768v-3.75l-2.5 2.5z"></path>
</svg>
