<!-- Generated by IcoMoon.io -->
<svg version="1.1" xmlns="http://www.w3.org/2000/svg" width="30" height="24" viewBox="0 0 30 24">
<title>Vector4</title>
<path fill="#fff" d="M23.571 17.714h-2.857v-1.429h-11.429v1.429h-2.857v-1.429h-5.714v7.143h28.571v-7.143h-5.714v1.429zM26.429 6.286h-4.286v-2.857c0-1.571-1.286-2.857-2.857-2.857h-8.571c-1.571 0-2.857 1.286-2.857 2.857v2.857h-4.286c-1.571 0-2.857 1.286-2.857 2.857v5.714h5.714v-2.857h2.857v2.857h11.429v-2.857h2.857v2.857h5.714v-5.714c0-1.571-1.286-2.857-2.857-2.857zM19.286 6.286h-8.571v-2.857h8.571v2.857z"></path>
</svg>
